<svg width="1600" height="1000" viewBox="0 0 1600 1000" fill="none" xmlns="http://www.w3.org/2000/svg">
  <rect width="1600" height="1000" fill="#061019"/>
  <rect x="56" y="56" width="1488" height="888" rx="36" fill="#0B121C" stroke="#243244"/>
  <rect x="96" y="96" width="1408" height="52" rx="18" fill="#101A28"/>
  <circle cx="130" cy="122" r="8" fill="#7FD1C1"/>
  <circle cx="160" cy="122" r="8" fill="#8FB9D6"/>
  <circle cx="190" cy="122" r="8" fill="#D6EDF9"/>
  <rect x="1260" y="108" width="200" height="28" rx="14" fill="#132131" stroke="#2D4055"/>
  <rect x="120" y="196" width="420" height="616" rx="28" fill="#0F1825" stroke="#243244"/>
  <rect x="572" y="196" width="812" height="616" rx="28" fill="#0E1622" stroke="#243244"/>
  <rect x="152" y="228" width="356" height="28" rx="14" fill="#132131"/>
  <rect x="152" y="282" width="312" height="22" rx="11" fill="#223246"/>
  <rect x="152" y="324" width="240" height="22" rx="11" fill="#1B293A"/>
  <rect x="152" y="388" width="324" height="18" rx="9" fill="#142131"/>
  <rect x="152" y="422" width="286" height="18" rx="9" fill="#142131"/>
  <rect x="152" y="456" width="250" height="18" rx="9" fill="#142131"/>
  <rect x="152" y="538" width="92" height="34" rx="17" fill="#173247" stroke="#35526B"/>
  <rect x="260" y="538" width="112" height="34" rx="17" fill="#132131" stroke="#2D4055"/>
  <circle cx="978" cy="502" r="174" fill="url(#paint0_radial)"/>
  <circle cx="978" cy="502" r="136" stroke="#35526B"/>
  <circle cx="978" cy="502" r="92" stroke="#4B6A88" stroke-dasharray="10 12"/>
  <circle cx="978" cy="502" r="38" fill="#D6EDF9" fill-opacity="0.88"/>
  <circle cx="978" cy="502" r="14" fill="#8FB9D6"/>
  <path d="M978 328V676" stroke="#243244"/>
  <path d="M804 502H1152" stroke="#243244"/>
  <circle cx="978" cy="366" r="10" fill="#7FD1C1"/>
  <circle cx="978" cy="638" r="10" fill="#8FB9D6"/>
  <circle cx="842" cy="502" r="10" fill="#8FB9D6"/>
  <circle cx="1114" cy="502" r="10" fill="#7FD1C1"/>
  <path d="M842 502L978 502L1114 502" stroke="#496786"/>
  <path d="M978 366L978 502L978 638" stroke="#496786"/>
  <rect x="1204" y="256" width="132" height="34" rx="17" fill="#132131" stroke="#2D4055"/>
  <rect x="1164" y="664" width="172" height="34" rx="17" fill="#132131" stroke="#2D4055"/>
  <rect x="774" y="664" width="144" height="34" rx="17" fill="#132131" stroke="#2D4055"/>
  <rect x="640" y="228" width="252" height="18" rx="9" fill="#213145"/>
  <rect x="640" y="262" width="296" height="18" rx="9" fill="#162433"/>
  <rect x="120" y="846" width="160" height="18" rx="9" fill="#223246"/>
  <rect x="120" y="880" width="260" height="18" rx="9" fill="#142131"/>
  <defs>
    <radialGradient id="paint0_radial" cx="0" cy="0" r="1" gradientUnits="userSpaceOnUse" gradientTransform="translate(978 502) rotate(90) scale(174)">
      <stop stop-color="#8FB9D6" stop-opacity="0.35"/>
      <stop offset="0.58" stop-color="#7FD1C1" stop-opacity="0.12"/>
      <stop offset="1" stop-color="#061019" stop-opacity="0"/>
    </radialGradient>
  </defs>
</svg>
