<svg width="1200" height="630" viewBox="0 0 1200 630" fill="none" xmlns="http://www.w3.org/2000/svg">
  <rect width="1200" height="630" fill="#05080D"/>
  <rect x="56" y="56" width="1088" height="518" rx="32" fill="url(#panel)" stroke="rgba(143,185,214,0.18)"/>
  <path d="M0 86H1200" stroke="rgba(143,185,214,0.08)"/>
  <path d="M0 150H1200" stroke="rgba(143,185,214,0.05)"/>
  <path d="M0 566H1200" stroke="rgba(143,185,214,0.05)"/>
  <path d="M110 0V630" stroke="rgba(143,185,214,0.04)"/>
  <path d="M1090 0V630" stroke="rgba(143,185,214,0.04)"/>
  <circle cx="835" cy="314" r="122" fill="url(#coreGlow)"/>
  <circle cx="835" cy="314" r="78" stroke="rgba(143,185,214,0.28)"/>
  <circle cx="835" cy="314" r="122" stroke="rgba(143,185,214,0.14)" stroke-dasharray="10 12"/>
  <circle cx="835" cy="314" r="24" fill="#D6EDF9"/>
  <circle cx="761" cy="266" r="7" fill="#D6EDF9"/>
  <circle cx="907" cy="278" r="6" fill="#D6EDF9"/>
  <circle cx="781" cy="378" r="5" fill="#8FB9D6"/>
  <circle cx="915" cy="360" r="8" fill="#8BD0C0"/>
  <path d="M761 266L835 314L907 278" stroke="rgba(214,237,249,0.38)"/>
  <path d="M781 378L835 314L915 360" stroke="rgba(214,237,249,0.28)"/>
  <text x="120" y="232" fill="#95A7BE" font-family="Segoe UI, Arial, sans-serif" font-size="20" letter-spacing="8">PORTFOLIO INTERFACE</text>
  <text x="120" y="314" fill="#EDF3FB" font-family="Segoe UI, Arial, sans-serif" font-size="64" font-weight="600">Marc Ibáñez</text>
  <text x="120" y="372" fill="#8FB9D6" font-family="Segoe UI, Arial, sans-serif" font-size="28">Web Developer &amp; Game Developer</text>
  <text x="120" y="440" fill="#95A7BE" font-family="Segoe UI, Arial, sans-serif" font-size="26">Scalable systems, interactive products, and maintainable architecture.</text>
  <defs>
    <linearGradient id="panel" x1="600" y1="56" x2="600" y2="574" gradientUnits="userSpaceOnUse">
      <stop stop-color="#0B121C"/>
      <stop offset="1" stop-color="#071019"/>
    </linearGradient>
    <radialGradient id="coreGlow" cx="0" cy="0" r="1" gradientUnits="userSpaceOnUse" gradientTransform="translate(835 314) rotate(90) scale(180 180)">
      <stop stop-color="rgba(214,237,249,0.18)"/>
      <stop offset="0.45" stop-color="rgba(143,185,214,0.12)"/>
      <stop offset="1" stop-color="rgba(5,8,13,0)"/>
    </radialGradient>
  </defs>
</svg>
